# xmcd CD database file
#
# Track frame offsets:
#	150
#	18929
#	37825
#	56513
#	74484
#	95090
#	121738
#	141049
#	162236
#	180851
#	199869
#	219683
#	239711
#	262936
#	281696
#	301721
#
# Disc length: 4280 seconds
#
# Revision: 1
# Processed by: cddbd v1.5.2PL0 Copyright (c) Steve Scherf et al.
# Submitted via: CDex 1.51
#
DISCID=dd10b610
DTITLE=조관우 - BEST ALBUM(BLUE SNOW)
DYEAR=2006
DGENRE=Rhythmic Soul
TTITLE0=01 떠나지마
TTITLE1=02 Mrs.
TTITLE2=03 들꽃
TTITLE3=04 우린 너무 쉽게 헤어졌어요
TTITLE4=05 실낙원
TTITLE5=06 또 다시 그리움
TTITLE6=07 Blue Christmas
TTITLE7=08 연
TTITLE8=09 영원
TTITLE9=10 과거
TTITLE10=11 사랑했으므로
TTITLE11=12 길
TTITLE12=13 그래도 넌
TTITLE13=14 미로
TTITLE14=15 내 마음 당신 곁으로
TTITLE15=16 진정 난 몰랐네
EXTD=YEAR: 2006
EXTT0=
EXTT1=
EXTT2=
EXTT3=
EXTT4=
EXTT5=
EXTT6=
EXTT7=
EXTT8=
EXTT9=
EXTT10=
EXTT11=
EXTT12=
EXTT13=
EXTT14=
EXTT15=
PLAYORDER=
